<?xml version="1.0" standalone="no"?><!DOCTYPE svg PUBLIC "-//W3C//DTD SVG 1.1//EN" "http://www.w3.org/Graphics/SVG/1.1/DTD/svg11.dtd"><svg t="1659538755800" class="icon" viewBox="0 0 1024 1024" version="1.1" xmlns="http://www.w3.org/2000/svg" p-id="2105" xmlns:xlink="http://www.w3.org/1999/xlink" width="200" height="200"><defs><style type="text/css"></style></defs><path d="M838.8 245.1C666 240.4 554.3 159 521.1 131.4c-6-5-14.6-5-20.6 0-33.1 27.7-144.9 109-317.7 113.7-8.7 0.2-15.8 7.1-15.8 15.8v324.4c0 145.2 217.9 316.3 343.8 316.3 122.4 0 343.8-171.1 343.8-316.3V260.9c0-8.6-7.1-15.5-15.8-15.8zM366.7 383.2l81.3-11.8c5.2-0.8 9.7-4 12.1-8.8l36.4-73.7c5.9-11.9 22.9-11.9 28.8 0l36.4 73.7c2.3 4.7 6.9 8 12.1 8.8l81.3 11.8c13.2 1.9 18.4 18.1 8.9 27.4l-58.8 57.3c-3.8 3.7-5.5 9-4.6 14.2l13.9 81c2.3 13.1-11.5 23.1-23.3 16.9l-72.7-38.2c-4.7-2.5-10.3-2.5-14.9 0L430.7 580c-11.8 6.2-25.5-3.8-23.3-16.9l13.9-81c0.9-5.2-0.8-10.5-4.6-14.2l-58.8-57.3c-9.6-9.3-4.3-25.5 8.8-27.4zM671 720.4c0 8.7-7 15.7-15.7 15.7h-289c-8.7 0-15.7-7-15.7-15.7v-39.1c0-8.7 7-15.7 15.7-15.7h289c8.7 0 15.7 7 15.7 15.7v39.1z" fill="#666666" p-id="2106"></path></svg>