<svg t="1660463478139" class="icon" viewBox="0 0 1024 1024" version="1.1" xmlns="http://www.w3.org/2000/svg" p-id="4666" width="200" height="200"><path d="M186.758633 563.798368l328.244498-328.244498a77.358853 77.358853 0 1 0-109.399779-109.39978L22.670254 509.087189a77.358853 77.358853 0 0 0 0 109.399779l382.910518 382.842778a77.313693 77.313693 0 0 0 109.399779 0 77.404013 77.404013 0 0 0 0-109.399779L186.758633 563.798368z" fill="#000000" p-id="4667"></path><path d="M673.130408 563.798368l328.221918-328.244498a77.358853 77.358853 0 1 0-109.399779-109.39978L509.019449 509.087189a77.358853 77.358853 0 0 0 0 109.399779l382.910518 382.842778a77.358853 77.358853 0 1 0 109.399779-109.399779L673.130408 563.798368z" fill="#000000" p-id="4668"></path></svg>