<?xml version="1.0" standalone="no"?><!DOCTYPE svg PUBLIC "-//W3C//DTD SVG 1.1//EN" "http://www.w3.org/Graphics/SVG/1.1/DTD/svg11.dtd"><svg t="1660207578042" class="icon" viewBox="0 0 1024 1024" version="1.1" xmlns="http://www.w3.org/2000/svg" p-id="9404" xmlns:xlink="http://www.w3.org/1999/xlink" width="200" height="200"><defs><style type="text/css"></style></defs><path d="M0 0h1024v1024H0V0z" fill="#202425" opacity=".01" p-id="9405"></path><path d="M361.130667 110.148267a102.4 102.4 0 0 1 98.986666-75.9808l103.901867 0.068266a102.4 102.4 0 0 1 98.884267 75.9808l3.4816 12.970667a85.0944 85.0944 0 0 0 104.3456 60.245333l12.4928-3.3792a102.4 102.4 0 0 1 115.336533 47.786667l52.224 90.760533a102.4 102.4 0 0 1-16.213333 123.392l-9.557334 9.557334a85.6064 85.6064 0 0 0 0 120.900266l9.454934 9.489067a102.4 102.4 0 0 1 16.2816 123.323733l-52.224 90.794667a102.4 102.4 0 0 1-115.336534 47.854933l-12.458666-3.345066a85.128533 85.128533 0 0 0-104.3456 60.245333l-3.4816 13.038933a102.4 102.4 0 0 1-98.986667 75.9808l-103.936-0.068266a102.4 102.4 0 0 1-98.884267-75.9808l-3.447466-12.970667a85.128533 85.128533 0 0 0-104.3456-60.245333l-12.526934 3.345066a102.4 102.4 0 0 1-115.336533-47.786666l-52.224-90.760534a102.4 102.4 0 0 1 16.247467-123.392l9.557333-9.557333a85.572267 85.572267 0 0 0 0-120.866133l-9.489067-9.489067a102.4 102.4 0 0 1-16.2816-123.323733l52.224-90.794667a102.4 102.4 0 0 1 115.370667-47.854933l12.458667 3.345066a85.128533 85.128533 0 0 0 104.3456-60.245333l3.4816-13.038933z" fill="#FF7744" p-id="9406"></path><path d="M785.066667 512a273.066667 273.066667 0 1 1-546.133334 0 273.066667 273.066667 0 0 1 546.133334 0z" fill="#FFAA44" p-id="9407"></path><path d="M614.4 512a102.4 102.4 0 1 1-204.8 0 102.4 102.4 0 0 1 204.8 0z" fill="#FFFFFF" p-id="9408"></path></svg>