<?xml version="1.0" standalone="no"?><!DOCTYPE svg PUBLIC "-//W3C//DTD SVG 1.1//EN" "http://www.w3.org/Graphics/SVG/1.1/DTD/svg11.dtd"><svg t="1660207595400" class="icon" viewBox="0 0 1024 1024" version="1.1" xmlns="http://www.w3.org/2000/svg" p-id="10665" xmlns:xlink="http://www.w3.org/1999/xlink" width="200" height="200"><defs><style type="text/css"></style></defs><path d="M675.437866 958.660347V697.301733h261.358614v261.358614H675.437866zM130.940754 697.301733h261.358614v261.358614H130.940754V697.301733zM130.940754 152.80462h261.358614v261.358614H130.940754V152.80462z" fill="#0099FF" opacity=".2" p-id="10666"></path><path d="M958.576364 1024H588.318328a43.559769 43.559769 0 0 1-43.559769-43.559769V610.182195a43.559769 43.559769 0 0 1 43.559769-43.559769h370.258036a43.559769 43.559769 0 0 1 43.559769 43.559769v370.258036a43.559769 43.559769 0 0 1-43.559769 43.559769z m-21.779884-392.037921H610.098213v326.698268h326.698267V631.962079zM414.079252 1024H43.821216a43.559769 43.559769 0 0 1-43.559769-43.559769V610.182195a43.559769 43.559769 0 0 1 43.559769-43.559769h370.258036a43.559769 43.559769 0 0 1 43.559769 43.559769v370.258036a43.559769 43.559769 0 0 1-43.559769 43.559769z m-21.779884-392.037921H65.6011v326.698268h326.698268V631.962079z m21.779884-152.459191H43.821216a43.559769 43.559769 0 0 1-43.559769-43.559769V65.685082a43.559769 43.559769 0 0 1 43.559769-43.559769h370.258036a43.559769 43.559769 0 0 1 43.559769 43.559769v370.258037a43.559769 43.559769 0 0 1-43.559769 43.559769zM392.299368 87.464967H65.6011v326.698267h326.698268V87.464967z" fill="#0099FF" p-id="10667"></path><path d="M532.953862 225.200956L747.681743 10.473075a35.76257 35.76257 0 0 1 50.529332 0l214.727881 214.727881c13.939126 13.960906 13.939126 36.568426 0 50.529332l-214.727881 214.727882c-13.960906 13.939126-36.568426 13.939126-50.529332 0l-214.727881-214.727882a35.76257 35.76257 0 0 1 0-50.529332z" fill="#0099FF" p-id="10668"></path></svg>